<svg width="601" height="601" viewBox="0 0 601 601" fill="none" xmlns="http://www.w3.org/2000/svg">
<path d="M166.324 0C74.8439 0 0 74.8453 0 166.324V434.644C0 526.123 74.8439 600.968 166.324 600.968H434.643C526.121 600.968 600.968 526.123 600.968 434.644V166.324C600.968 74.8453 526.121 0 434.643 0H166.324Z" fill="url(#paint0_radial_15_414)"/>
<g clip-path="url(#clip0_15_414)">
<path d="M342.375 281.232V211.923C342.375 205.09 336.781 199.373 329.789 199.373C322.936 199.373 317.203 204.951 317.203 211.923V281.092C325.453 282.626 333.984 282.766 342.375 281.232Z" fill="white"/>
<path d="M304.756 277.606V227.542C304.756 220.709 299.163 214.991 292.17 214.991C285.318 214.991 279.584 220.57 279.584 227.542V260.453C286.856 268.123 295.387 273.98 304.756 277.606Z" fill="white"/>
<path d="M379.992 260.453V196.305C379.992 189.471 374.399 183.754 367.406 183.754C360.554 183.754 354.821 189.332 354.821 196.305V277.606C359.156 275.932 363.491 273.701 367.546 270.912C372.161 267.984 376.356 264.358 379.992 260.453Z" fill="white"/>
<path d="M406.703 406.182H251.756L245.323 382.056H426.141C424.323 381.08 422.785 379.686 421.666 377.873L406.703 355.281H238.331L212.46 257.385H246.581C246.442 256.967 246.302 256.409 246.302 255.851C242.246 247.623 239.449 239.117 237.911 230.471H205.328L194 187.519C192.462 181.662 187.148 177.479 180.995 177.479H133.867C126.456 177.479 120.442 183.475 120.442 190.866C120.442 198.257 126.456 204.254 133.867 204.254H170.646L214.278 369.784C214.417 371.179 214.837 372.434 215.256 373.689L224.766 409.947C213.159 415.943 205.188 427.936 205.188 441.882C205.188 461.684 221.27 477.721 241.128 477.721C260.985 477.721 277.067 461.684 277.067 441.882C277.067 438.814 276.648 435.746 275.949 432.817H371.881C371.182 435.746 370.763 438.814 370.763 441.882C370.763 461.684 386.845 477.721 406.703 477.721C426.56 477.721 442.642 461.684 442.642 441.882C442.642 422.358 426.56 406.182 406.703 406.182ZM241.407 451.225C236.373 451.225 232.317 447.181 232.317 442.161C232.317 437.14 236.373 433.096 241.407 433.096C246.442 433.096 250.497 437.14 250.497 442.161C250.497 447.041 246.302 451.225 241.407 451.225ZM406.703 451.225C401.668 451.225 397.613 447.181 397.613 442.161C397.613 437.14 401.668 433.096 406.703 433.096C411.737 433.096 415.792 437.14 415.792 442.161C415.792 447.041 411.737 451.225 406.703 451.225Z" fill="white"/>
<path d="M475.086 235.77C472.569 232.563 468.653 230.61 464.458 230.61H421.806C421.666 231.307 421.666 232.005 421.526 232.563C420.407 238.001 418.869 243.3 416.771 248.46C415.513 251.528 414.114 254.596 412.576 257.385H447.117L429.217 327.391L427.26 335.2L445.16 362.254C445.999 363.648 446.558 365.043 446.977 366.577L451.313 349.564L477.463 247.484C478.442 243.3 477.603 238.977 475.086 235.77Z" fill="white"/>
<path d="M445.16 362.254L427.26 335.2L392.718 283.045C400.829 275.654 407.542 267.007 412.576 257.385C414.114 254.457 415.513 251.528 416.771 248.46C418.729 243.3 420.407 238.141 421.526 232.562C421.666 231.865 421.806 231.168 421.806 230.61C422.365 227.821 422.645 225.032 422.924 222.382C424.742 201.325 419.568 180.546 407.681 162.696C393.837 141.918 372.72 127.833 348.248 122.952C323.775 118.071 298.883 122.952 278.046 136.758C259.727 148.891 247.141 166.462 240.848 185.985C238.051 194.492 236.653 203.417 236.373 212.481C236.233 218.617 236.792 224.753 237.771 230.75C239.31 239.396 242.106 247.902 246.162 256.13C247.84 259.477 249.658 262.824 251.756 265.892C266.02 287.228 287.695 300.895 311.189 305.636C330.208 309.401 350.485 307.309 368.945 298.803L406.423 355.421L421.386 378.012C422.645 379.825 424.183 381.22 425.861 382.196H432.294C436.629 382.196 440.545 380.104 442.922 376.896C444.041 375.502 444.88 373.968 445.299 372.155L446.698 366.716C446.558 365.043 445.999 363.509 445.16 362.254ZM379.992 260.453C376.356 264.358 372.301 267.844 367.686 270.912C363.631 273.562 359.295 275.793 354.96 277.606C350.905 279.279 346.71 280.395 342.374 281.232C333.984 282.766 325.593 282.766 317.342 281.232C313.007 280.395 308.812 279.279 304.756 277.606C295.387 273.98 286.856 268.123 279.724 260.453C277.207 257.803 274.97 255.014 272.872 251.946C265.74 241.209 262.104 229.216 261.545 217.362C261.125 208.298 262.524 199.233 265.6 190.866C270.355 177.757 279.305 165.904 291.891 157.537C307.134 147.496 325.313 143.87 343.213 147.496C361.113 151.122 376.496 161.441 386.705 176.642C394.816 188.914 398.731 203.138 398.032 217.502C397.892 220.988 397.473 224.335 396.774 227.821C395.655 233.399 393.837 238.559 391.46 243.579C388.523 249.715 384.607 255.433 379.992 260.453Z" fill="white"/>
</g>
<defs>
<radialGradient id="paint0_radial_15_414" cx="0" cy="0" r="1" gradientUnits="userSpaceOnUse" gradientTransform="translate(606.667 574.6) rotate(-135.872) scale(797.886 797.886)">
<stop stop-color="#C4955B"/>
<stop offset="0.0341139" stop-color="#C4955B"/>
<stop offset="0.28013" stop-color="#435F79"/>
<stop offset="0.362612" stop-color="#435F79"/>
<stop offset="0.403746" stop-color="#435F79"/>
<stop offset="0.613904" stop-color="#161D26"/>
<stop offset="1" stop-color="#161D26"/>
</radialGradient>
<clipPath id="clip0_15_414">
<rect width="358" height="357" fill="white" transform="translate(120.163 121)"/>
</clipPath>
</defs>
</svg>
